<svg width="26" height="26" viewBox="0 0 26 26" fill="none" xmlns="http://www.w3.org/2000/svg">
<path d="M13 0.8125C10.5895 0.8125 8.23322 1.52728 6.22899 2.86646C4.22477 4.20564 2.66267 6.10907 1.74022 8.33604C0.817781 10.563 0.576428 13.0135 1.04668 15.3777C1.51694 17.7418 2.67769 19.9134 4.38214 21.6179C6.08659 23.3223 8.2582 24.4831 10.6223 24.9533C12.9865 25.4236 15.437 25.1822 17.664 24.2598C19.8909 23.3373 21.7944 21.7752 23.1335 19.771C24.4727 17.7668 25.1875 15.4105 25.1875 13C25.1841 9.76872 23.899 6.67076 21.6141 4.3859C19.3292 2.10104 16.2313 0.815912 13 0.8125ZM2.68751 13C2.69061 10.2659 3.7781 7.64468 5.71139 5.71139C7.64469 3.77809 10.2659 2.6906 13 2.6875V23.3125C10.2659 23.3094 7.64469 22.2219 5.71139 20.2886C3.7781 18.3553 2.69061 15.7341 2.68751 13Z" fill="white"/>
</svg>
