<svg width="24" height="24" viewBox="0 0 24 24" fill="none" xmlns="http://www.w3.org/2000/svg">
<path d="M10.4 11.0857L11.7529 14.4H9.04706L10.4 11.0857Z" fill="white"/>
<path fill-rule="evenodd" clip-rule="evenodd" d="M0.753154 0.753154C1.23539 0.270918 1.88944 0 2.57143 0H21.4286C21.7663 0 22.1006 0.066512 22.4126 0.195738C22.7246 0.324965 23.0081 0.514375 23.2468 0.753154C23.4856 0.991933 23.675 1.27541 23.8043 1.58739C23.9335 1.89937 24 2.23374 24 2.57143V21.4286C24 22.1106 23.7291 22.7646 23.2468 23.2468C22.7646 23.7291 22.1106 24 21.4286 24H2.57143C1.88944 24 1.23539 23.7291 0.753154 23.2468C0.270918 22.7646 0 22.1106 0 21.4286V2.57143C0 1.88944 0.270918 1.23539 0.753154 0.753154ZM9.69412 9.6L6.4 17.6H7.75294L8.57647 15.5429H12.2235L13.0471 17.6H14.4L11.1059 9.6H9.69412ZM17.9521 9.46663L15.6427 13.4666L13.3333 9.46663L15.2427 9.46663V6.66663H16.0427V9.46663H17.9521Z" fill="white"/>
</svg>
