<svg width="867" height="688" viewBox="0 0 867 688" fill="none" xmlns="http://www.w3.org/2000/svg">
<path d="M74.604 2.65335C65.1741 -2.1532 53.5983 1.58303 49.1373 11.1813C0.337669 116.178 -12.6326 234.51 12.5511 347.885C39.1224 467.506 106.51 574.145 203.144 649.492C299.778 724.839 419.629 764.193 542.119 760.797C658.213 757.579 769.811 716.149 859.742 643.222C867.962 636.555 868.764 624.418 861.803 616.445C854.842 608.471 842.758 607.683 834.518 614.326C751.31 681.41 648.249 719.511 541.057 722.483C427.467 725.632 316.325 689.138 226.712 619.266C137.1 549.394 74.6087 450.503 49.9681 339.574C26.7152 234.891 38.5389 125.651 83.3111 28.5984C87.7448 18.9875 84.034 7.45989 74.604 2.65335Z" fill="#2B37DC" fill-opacity="0.01"/>
</svg>
