<svg width="24" height="24" viewBox="0 0 24 24" fill="none" xmlns="http://www.w3.org/2000/svg">
<path d="M13.6353 14.24L11.2 8.27429L8.76475 14.24H13.6353Z" fill="white"/>
<path fill-rule="evenodd" clip-rule="evenodd" d="M2.57139 0C1.88945 0 1.23535 0.270918 0.753125 0.753154C0.270898 1.23539 0 1.88944 0 2.57143V21.4286C0 22.1106 0.270898 22.7646 0.753125 23.2468C1.23535 23.7291 1.88945 24 2.57139 24H21.4286C22.1105 24 22.7646 23.7291 23.2469 23.2468C23.7291 22.7646 24 22.1106 24 21.4286V2.57143C24 2.23374 23.9335 1.89937 23.8043 1.58739C23.675 1.27541 23.4856 0.991933 23.2469 0.753154C23.0081 0.514375 22.7246 0.324965 22.4126 0.195738C22.1006 0.0665115 21.7662 0 21.4286 0H2.57139ZM4 20L9.92939 5.6H12.4706L18.4 20H15.9647L14.4823 16.2971H7.91768L6.43525 20H4ZM17.6 3.2L15.2 7.43529H17.1843V10.4H18.0157V7.43529H20L17.6 3.2Z" fill="white"/>
</svg>
