<svg width="867" height="688" viewBox="0 0 867 688" fill="none" xmlns="http://www.w3.org/2000/svg">
<path d="M74.6048 2.65335C65.1748 -2.1532 53.5991 1.58303 49.1381 11.1813C0.338402 116.178 -12.6319 234.51 12.5518 347.885C39.1231 467.506 106.511 574.145 203.145 649.492C299.779 724.839 419.63 764.193 542.12 760.797C658.213 757.579 769.812 716.149 859.742 643.222C867.963 636.555 868.764 624.418 861.804 616.445C854.843 608.471 842.758 607.683 834.519 614.326C751.311 681.41 648.25 719.511 541.058 722.483C427.468 725.632 316.326 689.138 226.713 619.266C137.101 549.394 74.6095 450.503 49.9689 339.574C26.716 234.891 38.5396 125.651 83.3118 28.5984C87.7455 18.9875 84.0347 7.45989 74.6048 2.65335Z" fill="#2B37DC" fill-opacity="0.01"/>
</svg>
