<svg width="823" height="675" viewBox="0 0 823 675" fill="none" xmlns="http://www.w3.org/2000/svg">
<path d="M73.6485 2.13457C65.4896 -2.41211 55.159 0.50543 50.9115 8.82402C0.527534 107.499 -13.0888 221.118 12.8712 329.208C40.1501 442.79 109.135 541.965 206.135 607.049C303.135 672.134 421.059 698.371 536.504 680.553C646.367 663.597 746.342 607.923 818.55 523.891C824.638 516.807 823.421 506.141 816.12 500.315C808.82 494.489 798.203 495.71 792.095 502.777C725.196 580.183 632.819 631.464 531.345 647.125C424.288 663.648 314.933 639.317 224.981 578.962C135.029 518.606 71.0568 426.638 45.7599 321.309C21.7822 221.473 34.2131 116.55 80.479 25.2998C84.7028 16.9691 81.8074 6.68126 73.6485 2.13457Z" fill="#2B37DC" fill-opacity="0.03"/>
</svg>
