<svg width="22" height="20" viewBox="0 0 22 20" fill="none" xmlns="http://www.w3.org/2000/svg">
<path d="M4.4375 3.45358C4.4375 2.00925 5.61465 0.834961 7.0625 0.834961H18.875C20.3229 0.834961 21.5 2.00925 21.5 3.45358V16.5467C21.5 17.991 20.3229 19.1653 18.875 19.1653H3.78125C1.96836 19.1653 0.5 17.7005 0.5 15.892V4.76288C0.5 4.03867 1.08652 3.45358 1.8125 3.45358C2.53848 3.45358 3.125 4.03867 3.125 4.76288V15.892C3.125 16.2521 3.42031 16.5467 3.78125 16.5467C4.14219 16.5467 4.4375 16.2521 4.4375 15.892V3.45358ZM7.0625 4.43556V7.70883C7.0625 8.25301 7.50137 8.69081 8.04688 8.69081H12.6406C13.1861 8.69081 13.625 8.25301 13.625 7.70883V4.43556C13.625 3.89138 13.1861 3.45358 12.6406 3.45358H8.04688C7.50137 3.45358 7.0625 3.89138 7.0625 4.43556ZM15.5938 4.10823C15.5938 4.46829 15.8891 4.76288 16.25 4.76288H18.2188C18.5797 4.76288 18.875 4.46829 18.875 4.10823C18.875 3.74817 18.5797 3.45358 18.2188 3.45358H16.25C15.8891 3.45358 15.5938 3.74817 15.5938 4.10823ZM15.5938 8.03615C15.5938 8.39621 15.8891 8.69081 16.25 8.69081H18.2188C18.5797 8.69081 18.875 8.39621 18.875 8.03615C18.875 7.67609 18.5797 7.3815 18.2188 7.3815H16.25C15.8891 7.3815 15.5938 7.67609 15.5938 8.03615ZM7.0625 11.9641C7.0625 12.3241 7.35781 12.6187 7.71875 12.6187H18.2188C18.5797 12.6187 18.875 12.3241 18.875 11.9641C18.875 11.604 18.5797 11.3094 18.2188 11.3094H7.71875C7.35781 11.3094 7.0625 11.604 7.0625 11.9641ZM7.0625 15.892C7.0625 16.2521 7.35781 16.5467 7.71875 16.5467H18.2188C18.5797 16.5467 18.875 16.2521 18.875 15.892C18.875 15.5319 18.5797 15.2373 18.2188 15.2373H7.71875C7.35781 15.2373 7.0625 15.5319 7.0625 15.892Z" fill="white"/>
</svg>
