<svg width="32" height="32" viewBox="0 0 32 32" fill="none" xmlns="http://www.w3.org/2000/svg">
<path d="M10.3062 1.53793C9.825 0.375433 8.55625 -0.243317 7.34375 0.0879327L1.84375 1.58793C0.75625 1.88793 0 2.87543 0 4.00043C0 19.4629 12.5375 32.0004 28 32.0004C29.125 32.0004 30.1125 31.2442 30.4125 30.1567L31.9125 24.6567C32.2438 23.4442 31.625 22.1754 30.4625 21.6942L24.4625 19.1942C23.4438 18.7692 22.2625 19.0629 21.5688 19.9192L19.0438 23.0004C14.6438 20.9192 11.0813 17.3567 9 12.9567L12.0813 10.4379C12.9375 9.73793 13.2312 8.56293 12.8062 7.54418L10.3062 1.54418V1.53793Z" fill="#2B37DC"/>
</svg>
