<svg width="24" height="24" viewBox="0 0 24 24" fill="none" xmlns="http://www.w3.org/2000/svg">
<g clip-path="url(#clip0_626_11804)">
<path fill-rule="evenodd" clip-rule="evenodd" d="M4.58748 0.0327148C4.08047 0.0327148 3.58193 0.161951 3.13893 0.408054C2.68783 0.638007 2.30707 0.98559 2.03704 1.41422C1.76311 1.84901 1.6136 2.35057 1.60475 2.86438L1.60462 21.1535L1.60475 21.1682C1.6136 21.682 1.76311 22.1836 2.03704 22.6183C2.30707 23.0471 2.68783 23.3945 3.13893 23.6246C3.58193 23.8706 4.08047 23.9999 4.58748 23.9999C5.10168 23.9999 5.60716 23.867 6.05484 23.614C6.0647 23.6085 6.07444 23.6027 6.08405 23.5967L20.8779 14.4467C21.3266 14.2206 21.7053 13.8762 21.973 13.4502C22.2492 13.0104 22.3959 12.5015 22.3959 11.982C22.3959 11.4626 22.2492 10.9536 21.973 10.5138C21.7051 10.0874 21.3257 9.74263 20.8766 9.51655L6.08162 0.434372C6.07279 0.428955 6.06386 0.423697 6.05484 0.418602C5.60716 0.165644 5.10168 0.0327148 4.58748 0.0327148Z" fill="#2B37DC"/>
</g>
<defs>
<clipPath id="clip0_626_11804">
<rect width="24" height="24" fill="white"/>
</clipPath>
</defs>
</svg>
