<svg width="14" height="16" viewBox="0 0 14 16" fill="none" xmlns="http://www.w3.org/2000/svg">
<path d="M7.10972 0C7.74187 0 8.25258 0.510714 8.25258 1.14286V5.98214L12.2347 3.59286C12.7776 3.26786 13.4776 3.44286 13.8026 3.98571C14.1276 4.52857 13.9526 5.22857 13.4097 5.55357L9.33115 8L13.4133 10.45C13.9562 10.775 14.1312 11.475 13.8062 12.0179C13.4812 12.5607 12.7812 12.7357 12.2383 12.4107L8.25258 10.0179V14.8571C8.25258 15.4893 7.74187 16 7.10972 16C6.47758 16 5.96687 15.4893 5.96687 14.8571V10.0179L1.98472 12.4071C1.44187 12.7321 0.741865 12.5571 0.416865 12.0143C0.0918653 11.4714 0.266865 10.7714 0.809722 10.4464L4.88829 8L0.806151 5.55C0.263294 5.225 0.0882939 4.525 0.413294 3.98214C0.738294 3.43929 1.43829 3.26429 1.98115 3.58929L5.96687 5.98214V1.14286C5.96687 0.510714 6.47758 0 7.10972 0Z" fill="#2B37DC"/>
</svg>
