<svg width="167" height="50" viewBox="0 0 167 50" fill="none" xmlns="http://www.w3.org/2000/svg">
<g id="Logo_DBLB">
<path id="Vector" d="M0 6.83203H7.04825L20.2195 40.8078L33.3942 6.83203H40.4424L23.8967 49.3025H16.5423L0 6.83203Z" fill="white"/>
<path id="Vector_2" d="M58.3142 45.0546C57.7019 45.9641 56.9059 46.7522 55.9841 47.4832C54.3309 48.6957 52.0007 49.9117 48.8134 49.9117C42.9319 49.9117 39.0098 45.9674 39.0098 41.4169C39.0098 36.5632 42.3808 33.2253 47.5888 32.3158L58.3108 30.497C58.3108 27.4015 55.8582 25.037 52.1844 25.037C49.7931 25.037 48.0174 26.0677 46.6091 27.0378C45.8131 27.5834 45.1396 28.2503 44.5273 28.9779L40.5439 25.0336C41.3399 24.003 42.3196 23.0935 43.4864 22.302C45.4457 20.9075 48.2657 19.5703 52.1878 19.5703C59.5422 19.5703 64.444 24.424 64.444 30.7968V49.302H58.3176V45.0546H58.3142ZM58.3142 35.3473L49.7352 36.863C46.6091 37.4087 45.1396 38.9244 45.1396 40.8073C45.1396 42.9293 46.9152 44.7515 50.0414 44.7515C54.637 44.7515 58.3142 41.1104 58.3142 36.2567V35.3473Z" fill="white"/>
<path id="Vector_3" d="M73.3262 6.83203H79.4526V49.3025H73.3262V6.83203Z" fill="white"/>
<path id="Vector_4" d="M92.018 9.87988H97.5321V20.1767H104.274V25.9398H97.5321V39.5914C97.5321 42.6262 98.9404 44.1419 101.822 44.1419C102.74 44.1419 103.536 43.96 104.213 43.7175L105.193 43.2325V48.9956L103.907 49.4806C103.111 49.7231 102.009 49.905 100.597 49.905C94.7155 49.905 91.4057 46.5671 91.4057 40.1977V25.9398H85.8916V20.1767H91.9228L92.018 9.87988Z" fill="white"/>
<path id="Vector_5" d="M124.912 31.7053H133.073C132.155 27.7611 129.457 25.0294 125.106 25.0294C118.527 25.0294 114.554 32.2038 116.891 37.9871C118.364 41.6249 121.705 44.141 125.719 44.141C128.355 44.141 130.498 43.1709 131.967 42.2008C132.825 41.6552 133.621 40.9883 134.298 40.2001L137.975 44.4475C137.179 45.4782 136.138 46.3876 134.91 47.1791C132.767 48.5736 129.763 49.9108 125.412 49.9108C116.833 49.9108 110.095 43.2349 110.095 34.7435C110.095 26.2521 116.833 19.5762 125.106 19.5762C133.379 19.5762 139.506 25.5818 139.506 33.8341C139.506 34.7435 139.383 35.471 139.322 36.0201L139.199 36.8689H124.912C123.593 36.8689 122.521 35.8079 122.521 34.501V34.0766C122.521 32.7697 123.593 31.7087 124.912 31.7087V31.7053Z" fill="white"/>
<path id="Vector_6" d="M147.473 40.5036C148.085 41.2917 148.759 41.9587 149.555 42.5043C150.963 43.4744 152.742 44.4445 155.13 44.4445C158.563 44.4445 160.338 42.6862 160.338 40.8033C160.338 35.9497 144.714 38.4355 144.714 28.0612C144.714 23.5107 148.759 19.5664 155.436 19.5664C158.93 19.5664 161.563 20.5971 163.281 21.5672C164.322 22.1128 165.179 22.7797 165.856 23.5073L161.872 27.4515C161.382 27.0271 160.831 26.6027 160.158 26.239C158.995 25.572 157.399 25.0264 155.44 25.0264C152.314 25.0264 150.844 26.5421 150.844 28.0612C150.844 32.9149 166.468 30.4897 166.468 40.8033C166.468 45.657 162.24 49.9044 155.13 49.9044C151.208 49.9044 148.392 48.5706 146.429 47.1727C145.265 46.3846 144.286 45.4751 143.486 44.4411L147.47 40.4968L147.473 40.5036Z" fill="white"/>
<g id="Group">
<path id="Vector_7" d="M143.778 11.8066C132.886 2.58431 116.714 2.58431 105.826 11.8066C104.839 12.642 103.376 12.5982 102.458 11.6887C101.441 10.6816 101.502 9.0278 102.594 8.10153C115.333 -2.70051 134.264 -2.70051 147.003 8.10153C148.095 9.0278 148.159 10.6816 147.139 11.6887C146.22 12.5982 144.758 12.642 143.771 11.8066H143.778Z" fill="#2B37DC"/>
<path id="Vector_8" d="M140.121 18.641C139.23 19.5235 137.815 19.5976 136.828 18.8196C133.423 16.1351 129.226 14.6766 124.8 14.6766C120.375 14.6766 116.174 16.1351 112.772 18.8196C111.785 19.5976 110.37 19.5235 109.479 18.641C108.445 17.6171 108.52 15.9161 109.666 15.0134C118.487 8.0411 131.117 8.0411 139.938 15.0134C141.081 15.9195 141.159 17.6171 140.125 18.641H140.121Z" fill="#2B37DC"/>
</g>
</g>
</svg>
