<svg width="93" height="30" viewBox="0 0 93 30" fill="none" xmlns="http://www.w3.org/2000/svg">
<path d="M0 4.10547H3.91157L11.2212 24.5266L18.5327 4.10547H22.4443L13.2619 29.6324H9.18048L0 4.10547Z" fill="#1C233E"/>
<path d="M32.3628 27.0805C32.023 27.6272 31.5812 28.1009 31.0696 28.5402C30.1522 29.269 28.859 29.9999 27.0901 29.9999C23.8261 29.9999 21.6494 27.6292 21.6494 24.8941C21.6494 21.9768 23.5202 19.9705 26.4105 19.4239L32.3609 18.3307C32.3609 16.4701 30.9998 15.0489 28.9609 15.0489C27.6338 15.0489 26.6484 15.6684 25.8668 16.2515C25.4251 16.5795 25.0513 16.9803 24.7115 17.4176L22.5008 15.0469C22.9426 14.4274 23.4863 13.8808 24.1338 13.4051C25.2212 12.5669 26.7862 11.7632 28.9628 11.7632C33.0443 11.7632 35.7647 14.6805 35.7647 18.5108V29.6334H32.3647V27.0805H32.3628ZM32.3628 21.2459L27.6017 22.157C25.8668 22.4849 25.0513 23.396 25.0513 24.5276C25.0513 25.8031 26.0367 26.8983 27.7716 26.8983C30.3221 26.8983 32.3628 24.7099 32.3628 21.7926V21.2459Z" fill="#1C233E"/>
<path d="M40.6941 4.10547H44.0941V29.6324H40.6941V4.10547Z" fill="#1C233E"/>
<path d="M51.0674 5.93799H54.1276V12.1269H57.8693V15.5908H54.1276V23.7961C54.1276 25.6202 54.9092 26.5312 56.5081 26.5312C57.0179 26.5312 57.4596 26.4219 57.8353 26.2761L58.379 25.9846V29.4485L57.6654 29.74C57.2236 29.8858 56.612 29.9951 55.8285 29.9951C52.5645 29.9951 50.7276 27.9888 50.7276 24.1605V15.5908H47.6675V12.1269H51.0146L51.0674 5.93799Z" fill="#1C233E"/>
<path d="M69.3227 19.0568H73.8516C73.3419 16.6861 71.8448 15.0443 69.4303 15.0443C65.7793 15.0443 63.5743 19.3564 64.8712 22.8325C65.6887 25.019 67.5425 26.5313 69.7701 26.5313C71.2332 26.5313 72.4225 25.9482 73.2381 25.3652C73.7138 25.0372 74.1555 24.6363 74.5312 24.1626L76.5719 26.7155C76.1302 27.335 75.5525 27.8816 74.871 28.3574C73.6817 29.1955 72.0148 29.9992 69.6002 29.9992C64.8391 29.9992 61.0994 25.9867 61.0994 20.8829C61.0994 15.7792 64.8391 11.7666 69.4303 11.7666C74.0215 11.7666 77.4215 15.3763 77.4215 20.3363C77.4215 20.8829 77.3535 21.3202 77.3195 21.6502L77.2516 22.1604H69.3227C68.5902 22.1604 67.9956 21.5227 67.9956 20.7372V20.4821C67.9956 19.6966 68.5902 19.0588 69.3227 19.0588V19.0568Z" fill="#1C233E"/>
<path d="M81.8427 24.345C82.1825 24.8188 82.5562 25.2196 82.998 25.5476C83.7796 26.1306 84.7669 26.7137 86.0921 26.7137C87.997 26.7137 88.9824 25.6569 88.9824 24.5252C88.9824 21.6079 80.3116 23.102 80.3116 16.8665C80.3116 14.1314 82.5563 11.7607 86.262 11.7607C88.2008 11.7607 89.662 12.3802 90.6154 12.9633C91.193 13.2913 91.6688 13.6921 92.0444 14.1294L89.8338 16.5001C89.562 16.245 89.2561 15.9899 88.8823 15.7713C88.2367 15.3704 87.3513 15.0425 86.2639 15.0425C84.529 15.0425 83.7135 15.9535 83.7135 16.8665C83.7135 19.7838 92.3842 18.3262 92.3842 24.5252C92.3842 27.4425 90.0377 29.9954 86.0921 29.9954C83.9155 29.9954 82.3524 29.1937 81.2631 28.3535C80.6175 27.8798 80.0738 27.3332 79.6301 26.7117L81.8408 24.341L81.8427 24.345Z" fill="#1C233E"/>
<path d="M79.7927 7.09637C73.7479 1.5533 64.7732 1.5533 58.7303 7.09637C58.1828 7.59845 57.3711 7.57213 56.8614 7.02552C56.2969 6.42019 56.3309 5.42616 56.9369 4.86943C64.0068 -1.62314 74.5125 -1.62314 81.5824 4.86943C82.1884 5.42616 82.2242 6.42019 81.6579 7.02552C81.1482 7.57213 80.3364 7.59845 79.7889 7.09637H79.7927Z" fill="#2B37DC"/>
<path d="M77.763 11.2043C77.2684 11.7347 76.4831 11.7792 75.9356 11.3116C74.0459 9.69805 71.7163 8.82144 69.2603 8.82144C66.8042 8.82144 64.4727 9.69805 62.5849 11.3116C62.0375 11.7792 61.2521 11.7347 60.7575 11.2043C60.1836 10.5888 60.2251 9.56646 60.8613 9.02389C65.7565 4.83318 72.7659 4.83318 77.6611 9.02389C78.2954 9.56848 78.3388 10.5888 77.7649 11.2043H77.763Z" fill="#2B37DC"/>
</svg>
