<svg width="13" height="16" viewBox="0 0 13 16" fill="none" xmlns="http://www.w3.org/2000/svg">
<path d="M7.72686 15.6405C9.33415 13.629 12.9999 8.7539 12.9999 6.01557C12.9999 2.69447 10.3054 0 6.98432 0C3.66322 0 0.96875 2.69447 0.96875 6.01557C0.96875 8.7539 4.63449 13.629 6.24177 15.6405C6.62714 16.1198 7.34149 16.1198 7.72686 15.6405ZM6.98432 4.01038C7.51613 4.01038 8.02615 4.22164 8.4022 4.59768C8.77825 4.97373 8.98951 5.48376 8.98951 6.01557C8.98951 6.54738 8.77825 7.0574 8.4022 7.43345C8.02615 7.8095 7.51613 8.02076 6.98432 8.02076C6.45251 8.02076 5.94248 7.8095 5.56643 7.43345C5.19039 7.0574 4.97913 6.54738 4.97913 6.01557C4.97913 5.48376 5.19039 4.97373 5.56643 4.59768C5.94248 4.22164 6.45251 4.01038 6.98432 4.01038Z" fill="#2B37DC"/>
</svg>
